<?xml version="1.0" encoding="utf-8"?>
<!-- Generator: Adobe Illustrator 25.4.1, SVG Export Plug-In . SVG Version: 6.00 Build 0)  -->
<svg version="1.1" xmlns="http://www.w3.org/2000/svg" xmlns:xlink="http://www.w3.org/1999/xlink" x="0px" y="0px"
	 viewBox="0 0 1400 1400" style="enable-background:new 0 0 1400 1400;" xml:space="preserve">
<style type="text/css">
	.st0{fill:#253C4A;}
	.st1{fill:#A4CDE0;}
	.st2{fill:#FFFFFF;}
	.st3{font-family:'Vibur';}
	.st4{font-size:161.1408px;}
	.st5{letter-spacing:4;}
	.st6{letter-spacing:13;}
	.st7{letter-spacing:7;}
	.st8{font-size:38.1722px;}
	.st9{letter-spacing:20;}
	.st10{fill:none;stroke:#DCECF3;stroke-width:4;stroke-miterlimit:10;}
	.st11{fill:none;}
	.st12{opacity:0.5;}
</style>
<g id="BACKGROUND">
	<rect x="0.3" y="0.3" class="st0" width="1399.4" height="1399.4"/>
</g>
<g id="OBJECTS">
	<path class="st1" d="M720.68,1318.38h-41.36c-330.1,0-597.71-267.6-597.71-597.71v-41.36c0-330.1,267.6-597.71,597.71-597.71h41.36
		c330.1,0,597.71,267.6,597.71,597.71v41.36C1318.38,1050.78,1050.78,1318.38,720.68,1318.38z"/>
	<text transform="matrix(1 0 0 1 521.8022 675.311)"><tspan x="0" y="0" class="st2 st3 st4"> N</tspan><tspan x="140.19" y="34.86" class="st2 st3 st4">O</tspan><tspan x="251.21" y="-7.15" class="st2 st3 st4">T</tspan></text>
	<text transform="matrix(1 0 0 1 526.2792 871.7524)"><tspan x="0" y="0" class="st2 st3 st4 st5">M</tspan><tspan x="133.58" y="34.33" class="st2 st3 st4 st6">I</tspan><tspan x="185.15" y="-9.57" class="st2 st3 st4 st7">L</tspan><tspan x="268.46" y="30.18" class="st2 st3 st4">K</tspan></text>
	<path class="st2" d="M853.78,513.38c-47.83-97.27-103.64-194.16-132.65-243.25c-5.85-9.9-16.2-15.81-27.7-15.81
		c-11.49,0-21.85,5.91-27.7,15.81c-29.01,49.1-84.81,145.98-132.65,243.25c-58.16,118.27-87.65,202.35-87.65,249.89
		c0,66.24,25.8,128.52,72.64,175.36c46.84,46.84,109.12,72.64,175.36,72.64s128.52-25.8,175.36-72.64
		c46.84-46.84,72.64-109.12,72.64-175.36C941.43,715.73,911.94,631.65,853.78,513.38z M861.02,930.85
		c-6.02,6.02-12.31,11.66-18.84,16.94l-0.86-0.81c-23-26.08-34.17-32.92-58.68-38.72c-47.06-11.14-89.2,16.56-132.84,31.67
		c-19.04,6.59-94.12,20.26-123.95-9.07l0,0c-44.76-44.76-69.41-104.28-69.41-167.58c0-44.67,27.65-124.1,82.18-236.15
		c12.75,5.98,50.42,19.01,111.18,1.77c43.54-12.35,81.72-52.22,134.53-39.29c27.45,6.72,73.49,60.32,76.54,63.89
		c46.17,98.21,69.56,168.69,69.56,209.77C930.43,826.57,905.78,886.09,861.02,930.85z"/>
	<text transform="matrix(1 0 0 1 209.0953 759.1696)" class="st2 st3 st8 st9">SINCE</text>
	<text transform="matrix(1 0 0 1 990.7518 759.1696)" class="st2 st3 st8 st9">2025</text>
	<g>
		<line class="st10" x1="208.66" y1="782.74" x2="408.96" y2="782.74"/>
		<line class="st10" x1="208.66" y1="709.49" x2="408.96" y2="709.49"/>
	</g>
	<g>
		<line class="st10" x1="963.02" y1="782.74" x2="1163.31" y2="782.74"/>
		<line class="st10" x1="963.02" y1="709.49" x2="1163.31" y2="709.49"/>
	</g>
	<path id="SVGID_x5F_1_x5F_" class="st11" d="M447.37,980.07C513.1,1045.8,600.48,1082,693.44,1082
		c92.95,0,180.34-36.2,246.07-101.92"/>
	<text>	<textPath  xlink:href="#SVGID_x5F_1_x5F_" startOffset="0.995%">
	</textPath>
</text>
</g>
<g id="TEXTURE" class="st12">
</g>
</svg>
